<svg xmlns="http://www.w3.org/2000/svg"
     xmlns:xlink="http://www.w3.org/1999/xlink"
	width="100%" height="100%"
	onload="startup(evt)"
>
<script>
<![CDATA[

xmlns="http://www.w3.org/2000/svg"
var Doc;
var O;
var Col=new Array("red","cyan","green","yellow")
var P=new Array()
function startup(evt){
	Root=document.documentElement
	Doc=document
	drawlines(100,10)
	coolabel(0,0,15,15)
}

function drawlines(u,t){
	B=Root.getBBox()
	var w=B.width
	var h=B.height
	for (i=0;i<=w/t;i++){
		L=Doc.createElementNS(xmlns,"line")
		L.setAttribute("x1",i*t)
		L.setAttribute("x2",i*t)
		L.setAttribute("y1",0)
		L.setAttribute("y2",8)
		L.setAttribute("stroke","blue")
		L.setAttribute("stroke-width","1")
		Root.appendChild(L)
		if (i%10==0){
			L=Doc.createElementNS(xmlns,"line")
			L.setAttribute("x1",i*t)
			L.setAttribute("x2",i*t)
			L.setAttribute("y1",0)
			L.setAttribute("y2",h)
			L.setAttribute("stroke","#08a")
			L.setAttribute("stroke-width","1")
			Root.appendChild(L)
		}
	}
	for (i=0;i<=h/t;i++){
		L=Doc.createElementNS(xmlns,"line")
		L.setAttribute("x1",0)
		L.setAttribute("x2",8)
		L.setAttribute("y1",i*t)
		L.setAttribute("y2",i*t)
		L.setAttribute("stroke","blue")
		L.setAttribute("stroke-width","1")
		Root.appendChild(L)
		if (i%10==0){
			L=Doc.createElementNS(xmlns,"line")
			L.setAttribute("x1",0)
			L.setAttribute("x2",w)
			L.setAttribute("y1",i*t)
			L.setAttribute("y2",i*t)
			L.setAttribute("stroke","#08a")
			L.setAttribute("stroke-width","1")
			Root.appendChild(L)
		}
	}
}

function coolabel(x,y,ox,oy,l){
	if (l==null) label=x+","+y
	else label=l
	E=Doc.createElementNS(xmlns,"circle")
	E.setAttribute("cx",x)
	E.setAttribute("cy",y)
	E.setAttribute("r",5)
	E.setAttribute("stroke","green")
	E.setAttribute("stroke-width","3")
	E.setAttribute("opacity",".4")
	E.setAttribute("fill","yellow")
	Root.appendChild(E)
	L=Doc.createElementNS(xmlns,"line")
	L.setAttribute("x1",x)
	L.setAttribute("x2",x+ox)
	L.setAttribute("y1",y)
	L.setAttribute("y2",y+oy)
	L.setAttribute("stroke","red")
	L.setAttribute("stroke-width","2")
	Root.appendChild(L)
	T=Doc.createElementNS(xmlns,"text")
	T.setAttribute("x",x+ox-label.length*2)
	if (oy>0)
	T.setAttribute("y",y+oy+12)
	else
	T.setAttribute("y",y+oy-4)
	T.setAttribute("font-size",12)
	if (l==null) T.setAttribute("fill","blue")
	else T.setAttribute("fill","black")
	msg=Doc.createTextNode(label)
	T.appendChild(msg)
	Root.appendChild(T)

}
//]]>
</script>
<rect id="BB" x="0" y="0" height="100%" width="100%" fill="white"/>

<polyline points="21,112 21.0378,115.045 21.1526,118.088 21.3465,121.126 21.6209,124.157 21.9765,127.178 22.4147,130.187 22.9383,133.181 23.548,136.158 24.2452,139.116 25.032,142.052 25.9091,144.963 26.8786,147.848 27.9412,150.703 29.0997,153.527 30.3548,156.316 31.7086,159.069 33.1618,161.783 34.7165,164.456 36.3741,167.084 38.136,169.667 40.0029,172.201 41.9783,174.684 44.0622,177.112 46.256,179.485 48.5625,181.8 50.9817,184.053 53.5157,186.243 56.1666,188.368 58.9358,190.424 61.8233,192.409 64.8326,194.321 67.9644,196.158 71.2201,197.917 74.6011,199.596 78.1095,201.191 81.746,202.702 85.5127,204.124 89.4103,205.457 93.4416,206.697 97.608,207.841 101.91,208.888 106.349,209.836 110.928,210.681 115.647,211.422 120.508,212.055 125.513,212.578 130.663,212.99 135.96,213.286 141.405,213.466 147,213.527 147,213.527 156.507,212.93 166.015,212.345 175.524,211.771 185.033,211.21 194.543,210.659 204.054,210.121 213.566,209.595 223.078,209.08 232.591,208.578 242.104,208.086 251.619,207.607 261.133,207.139 270.648,206.683 280.164,206.24 289.68,205.808 299.197,205.387 308.714,204.978 318.232,204.581 327.75,204.196 337.269,203.822 346.788,203.461 356.308,203.111 365.828,202.773 375.348,202.447 384.87,202.133 394.391,201.83 403.913,201.539 413.435,201.26 422.957,200.992 432.48,200.737 442.002,200.493 451.526,200.261 461.049,200.041 470.573,199.832 480.097,199.636 489.621,199.451 499.145,199.277 508.67,199.116 518.195,198.967 527.72,198.829 537.246,198.703 546.771,198.589 556.297,198.486 565.823,198.396 575.348,198.317 584.874,198.25 594.4,198.194 603.926,198.151 613.452,198.12 622.978,198.1 632.504,198.092 642.03,198.095 651.556,198.111 661.082,198.138 670.608,198.177 680.134,198.228 689.66,198.29 699.186,198.365 708.712,198.451 718.237,198.549 727.763,198.659 737.288,198.78 746.813,198.913 756.338,199.058 765.863,199.215 775.387,199.384 784.912,199.564 794.436,199.757 803.96,199.961 813.483,200.176 823.007,200.404 832.53,200.644 842.052,200.894 851.575,201.158 861.097,201.432 870.619,201.719 880.141,202.017 889.661,202.327 899.182,202.649 908.702,202.983 918.222,203.328 927.742,203.685 937.261,204.054 946.779,204.434 956.297,204.827 965.814,205.232 975.332,205.647 984.848,206.075 994.364,206.515 1003.88,206.966 1013.39,207.429 1022.91,207.904 1032.42,208.391 1041.94,208.889 1051.45,209.399 1060.96,209.922 1070.47,210.455 1079.98,211 1089.49,211.558 1099,212.127 1099,212.127 1103.35,212.067 1107.59,211.89 1111.71,211.597 1115.71,211.191 1119.6,210.675 1123.39,210.05 1127.06,209.32 1130.62,208.487 1134.07,207.553 1137.42,206.52 1140.66,205.391 1143.79,204.168 1146.82,202.854 1149.75,201.451 1152.58,199.961 1155.31,198.388 1157.94,196.732 1160.47,194.998 1162.91,193.187 1165.25,191.3 1167.49,189.342 1169.65,187.314 1171.71,185.219 1173.68,183.06 1175.56,180.837 1177.36,178.555 1179.06,176.215 1180.68,173.819 1182.22,171.37 1183.67,168.871 1185.04,166.325 1186.33,163.733 1187.54,161.097 1188.67,158.42 1189.72,155.705 1190.7,152.954 1191.6,150.169 1192.43,147.353 1193.18,144.509 1193.86,141.637 1194.48,138.742 1195.02,135.825 1195.49,132.889 1195.9,129.936 1196.24,126.969 1196.52,123.989 1196.73,121 1196.88,118.004 1196.97,115.003 1197,112 1197,112 1196.97,108.997 1196.88,105.996 1196.73,103 1196.52,100.011 1196.24,97.0312 1195.9,94.0639 1195.49,91.1113 1195.02,88.1748 1194.48,85.2579 1193.86,82.3627 1193.18,79.4913 1192.43,76.6465 1191.6,73.8311 1190.7,71.0458 1189.72,68.2948 1188.67,65.5802 1187.54,62.9034 1186.33,60.2672 1185.04,57.6751 1183.67,55.1285 1182.22,52.6295 1180.68,50.1809 1179.06,47.7855 1177.36,45.4454 1175.56,43.1627 1173.68,40.9402 1171.71,38.7807 1169.65,36.6856 1167.49,34.6577 1165.25,32.6998 1162.91,30.8133 1160.47,29.0024 1157.94,27.2678 1155.31,25.6123 1152.58,24.0387 1149.75,22.5491 1146.82,21.1463 1143.79,19.8317 1140.66,18.6095 1137.42,17.4804 1134.07,16.4472 1130.62,15.5127 1127.06,14.6797 1123.39,13.9496 1119.6,13.3252 1115.71,12.8086 1111.71,12.4026 1107.59,12.11 1103.35,11.9329 1099,11.8727 1099,11.8727 1089.49,12.4418 1079.98,12.9997 1070.47,13.545 1060.96,14.0784 1051.45,14.6006 1041.94,15.1109 1032.42,15.6093 1022.91,16.0958 1013.39,16.5711 1003.88,17.0338 994.364,17.4853 984.848,17.9249 975.332,18.3526 965.814,18.7684 956.297,19.173 946.779,19.5657 937.261,19.9458 927.742,20.3154 918.222,20.6724 908.702,21.0175 899.182,21.3514 889.661,21.6727 880.141,21.9828 870.619,22.281 861.097,22.568 851.575,22.8424 842.052,23.1056 832.53,23.3562 823.007,23.5956 813.483,23.8238 803.96,24.0394 794.436,24.2431 784.912,24.4356 775.387,24.6162 765.863,24.7849 756.338,24.9417 746.813,25.0866 737.288,25.2196 727.763,25.3414 718.237,25.4513 708.712,25.5493 699.186,25.6354 689.66,25.7096 680.134,25.7719 670.608,25.823 661.082,25.8622 651.556,25.8895 642.03,25.9049 632.504,25.9084 622.978,25.9 613.452,25.8804 603.926,25.8489 594.4,25.8055 584.874,25.7502 575.348,25.683 565.823,25.6039 556.297,25.5136 546.771,25.4114 537.246,25.2966 527.72,25.1713 518.195,25.0334 508.67,24.8836 499.145,24.7226 489.621,24.549 480.097,24.3642 470.573,24.1675 461.049,23.9589 451.526,23.7391 442.002,23.5067 432.48,23.2631 422.957,23.0076 413.435,22.7402 403.913,22.4609 394.391,22.1704 384.87,21.8673 375.348,21.553 365.828,21.2268 356.308,20.8887 346.788,20.5387 337.269,20.1775 327.75,19.8037 318.232,19.4187 308.714,19.0218 299.197,18.613 289.68,18.1923 280.164,17.7604 270.648,17.3166 261.133,16.8609 251.619,16.3933 242.104,15.9138 232.591,15.4224 223.078,14.9198 213.566,14.4053 204.054,13.8789 194.543,13.3406 185.033,12.7904 175.524,12.229 166.015,11.655 156.507,11.0698 147,10.4727 147,10.4727 141.405,10.5336 135.96,10.7135 130.663,11.0103 125.513,11.4219 120.508,11.9455 115.647,12.5783 110.928,13.3189 106.349,14.1638 101.91,15.1116 97.608,16.1588 93.4416,17.3033 89.4103,18.543 85.5127,19.8758 81.746,21.2982 78.1095,22.8088 74.6011,24.4041 71.2201,26.0827 67.9644,27.8418 64.8326,29.6786 61.8233,31.591 58.9358,33.5762 56.1666,35.6321 53.5157,37.7566 50.9817,39.9469 48.5625,42.2002 46.256,44.5151 44.0622,46.8881 41.9783,49.3164 40.0029,51.7993 38.136,54.3333 36.3741,56.9156 34.7165,59.5441 33.1618,62.2167 31.7086,64.9306 30.3548,67.6837 29.0997,70.4732 27.9412,73.297 26.8786,76.1523 25.9091,79.037 25.032,81.9483 24.2452,84.8841 23.548,87.8416 22.9383,90.8187 22.4147,93.8133 21.9765,96.8219 21.6209,99.8431 21.3465,102.874 21.1526,105.912 21.0378,108.955 21,112 " style="fill-opacity:0.5;fill:rgb(0,0,0);stroke:rgb(0,0,0);stroke-width:1;fill:none"/>
<circle cx="21" cy="112" r="2" style="stroke-width:1;stroke:red;fill:none"/>
<polyline points="21,110.6 147,110.6 152.655,110.596 158.203,110.581 163.647,110.557 168.995,110.525 174.251,110.484 179.421,110.436 184.512,110.38 189.527,110.317 194.475,110.247 199.36,110.171 204.187,110.088 208.963,110.001 213.694,109.908 218.385,109.81 223.04,109.708 227.668,109.603 232.273,109.493 236.861,109.38 241.437,109.264 246.008,109.147 250.578,109.026 255.154,108.905 259.742,108.783 264.347,108.659 268.975,108.535 273.631,108.412 278.321,108.288 283.052,108.165 287.828,108.044 292.656,107.924 297.541,107.806 302.488,107.691 307.504,107.578 312.594,107.468 317.765,107.362 323.021,107.26 328.368,107.163 333.812,107.07 339.36,106.982 345.016,106.9 350.785,106.823 356.676,106.754 362.692,106.691 368.838,106.635 375.123,106.586 381.55,106.546 388.125,106.513 394.855,106.49 401.745,106.475 408.8,106.47 837.2,106.47 844.255,106.475 851.145,106.49 857.875,106.513 864.45,106.546 870.877,106.586 877.161,106.635 883.308,106.691 889.323,106.754 895.214,106.823 900.984,106.9 906.639,106.982 912.187,107.07 917.631,107.163 922.979,107.26 928.234,107.362 933.405,107.468 938.496,107.578 943.511,107.691 948.459,107.806 953.344,107.924 958.171,108.044 962.947,108.165 967.678,108.288 972.369,108.412 977.025,108.535 981.652,108.659 986.257,108.783 990.845,108.905 995.421,109.026 999.992,109.147 1004.56,109.264 1009.14,109.38 1013.73,109.493 1018.33,109.603 1022.96,109.708 1027.61,109.81 1032.31,109.908 1037.04,110.001 1041.81,110.088 1046.64,110.171 1051.52,110.247 1056.47,110.317 1061.49,110.38 1066.58,110.436 1071.75,110.484 1077,110.525 1082.35,110.557 1087.8,110.581 1093.34,110.596 1099,110.6 1197,110.6 " style="fill-opacity:0.5;fill:rgb(0,0,0);stroke:rgb(0,0,0);stroke-width:1;fill:none"/>
<circle cx="21" cy="110.6" r="2" style="stroke-width:1;stroke:red;fill:none"/>
<polyline points="35.0007,112 35.0343,114.675 35.1365,117.394 35.3045,120.028 35.5481,122.715 35.8603,125.368 36.2397,127.971 36.6947,130.575 37.2225,133.15 37.8224,135.696 38.4965,138.21 39.2518,140.717 40.0764,143.172 40.985,145.612 41.9601,147.989 43.029,150.365 44.1623,152.67 45.3789,154.942 46.6991,157.211 48.0781,159.398 49.5565,161.566 51.1203,163.687 52.7765,165.769 54.5111,167.791 56.3647,169.796 58.2974,171.735 60.3267,173.625 62.4757,175.483 64.7234,177.284 67.0684,179.025 69.5513,180.732 72.1294,182.371 74.837,183.959 77.6566,185.483 80.6197,186.953 83.6934,188.351 86.9099,189.687 90.2524,190.949 93.7174,192.134 97.3567,193.253 101.138,194.292 105.022,195.238 109.078,196.104 113.287,196.88 117.623,197.56 119.258,197.885 120.83,198.421 122.343,199.161 123.796,200.097 125.192,201.222 126.531,202.527 127.814,204.006 129.041,205.65 130.217,207.452 131.34,209.405 132.411,211.501 133.433,213.732 133.777,214.565 135.882,214.683 135.914,214.684 141.359,214.864 141.389,214.865 146.985,214.926 147.088,214.923 156.594,214.326 166.101,213.741 175.606,213.167 175.606,213.168 185.116,212.606 194.624,212.056 204.133,211.518 213.643,210.991 223.154,210.477 232.665,209.974 242.176,209.483 251.687,209.003 251.687,209.004 261.202,208.536 270.715,208.081 280.229,207.637 289.744,207.205 299.258,206.784 308.774,206.375 318.29,205.978 327.807,205.594 337.322,205.22 337.322,205.22 346.842,204.859 356.359,204.509 365.878,204.171 375.396,203.845 384.916,203.531 394.435,203.227 403.955,202.937 413.476,202.658 422.996,202.39 432.517,202.135 442.038,201.891 451.56,201.659 461.08,201.439 461.08,201.44 470.604,201.231 480.126,201.034 489.649,200.85 499.171,200.676 508.694,200.515 518.217,200.365 527.74,200.227 537.264,200.102 546.788,199.987 556.312,199.885 565.836,199.795 575.36,199.716 584.884,199.648 594.409,199.593 603.932,199.55 613.457,199.518 622.981,199.499 632.505,199.49 642.028,199.494 651.552,199.509 661.077,199.536 670.601,199.576 680.125,199.627 689.649,199.689 699.173,199.763 708.697,199.849 718.221,199.947 727.745,200.057 737.268,200.179 746.792,200.312 756.315,200.457 765.839,200.614 775.361,200.782 784.884,200.963 794.406,201.155 803.93,201.359 803.93,201.358 813.45,201.574 822.972,201.802 832.492,202.042 842.014,202.292 851.535,202.556 861.055,202.83 870.575,203.117 880.095,203.415 889.615,203.725 899.133,204.047 908.652,204.38 918.17,204.725 927.689,205.082 927.689,205.082 937.205,205.451 946.721,205.832 956.238,206.224 965.754,206.629 975.269,207.045 984.784,207.472 994.297,207.912 1003.81,208.363 1013.32,208.826 1022.84,209.301 1022.84,209.301 1032.35,209.787 1041.86,210.286 1051.37,210.796 1060.88,211.318 1070.39,211.851 1079.9,212.397 1089.41,212.955 1089.41,212.954 1098.92,213.523 1099.02,213.526 1103.37,213.466 1103.41,213.464 1107.64,213.287 1107.69,213.285 1111.43,213.019 1111.75,212.213 1112.74,209.945 1113.78,207.803 1114.87,205.796 1116.01,203.929 1117.21,202.209 1118.46,200.644 1119.76,199.242 1121.13,198.009 1122.55,196.953 1124.03,196.08 1125.57,195.397 1127.18,194.914 1130.18,194.102 1133.05,193.215 1135.81,192.252 1138.46,191.222 1141.01,190.117 1143.48,188.934 1145.82,187.7 1148.07,186.401 1150.26,185.024 1152.33,183.604 1154.34,182.11 1156.25,180.573 1158.1,178.961 1159.85,177.308 1161.55,175.582 1163.15,173.826 1164.71,171.985 1166.2,170.099 1167.61,168.164 1168.95,166.176 1170.24,164.128 1171.45,162.035 1172.6,159.899 1173.7,157.698 1174.73,155.438 1175.69,153.178 1176.6,150.819 1177.44,148.459 1178.22,146.059 1178.94,143.582 1179.6,141.093 1180.2,138.571 1180.74,136.019 1181.22,133.435 1181.65,130.797 1182.01,128.192 1182.32,125.502 1182.56,122.895 1182.76,120.141 1182.89,117.435 1182.97,114.727 1183,112 1182.97,109.273 1182.89,106.565 1182.76,103.859 1182.56,101.126 1182.32,98.4984 1182.01,95.8083 1181.65,93.2029 1181.22,90.5646 1180.74,87.9809 1180.2,85.4287 1179.6,82.9073 1178.94,80.4181 1178.22,77.9415 1177.44,75.5412 1176.6,73.1815 1175.69,70.8225 1174.73,68.5622 1173.7,66.3019 1172.6,64.1011 1171.45,61.9647 1170.24,59.8724 1168.95,57.8242 1167.61,55.8362 1166.2,53.9014 1164.71,52.0149 1163.15,50.1739 1161.55,48.4183 1159.85,46.6921 1158.1,45.0394 1156.25,43.4273 1154.34,41.8901 1152.33,40.3963 1150.26,38.976 1148.07,37.5991 1145.82,36.2999 1143.48,35.0658 1141.01,33.8835 1138.46,32.7782 1135.81,31.7478 1133.05,30.7846 1130.18,29.8984 1127.18,29.0864 1125.57,28.6027 1124.03,27.9202 1122.55,27.0473 1121.13,25.991 1119.76,24.7576 1118.46,23.3555 1117.21,21.791 1116.01,20.0711 1114.87,18.2042 1113.78,16.1966 1112.74,14.0553 1111.75,11.7873 1111.43,10.9809 1107.69,10.7149 1107.64,10.7128 1103.41,10.5357 1103.37,10.5343 1099.02,10.4741 1098.92,10.4769 1089.41,11.046 1089.41,11.0453 1079.9,11.6032 1070.39,12.1485 1060.88,12.6819 1051.37,13.2041 1041.86,13.7144 1032.35,14.2128 1022.84,14.6993 1022.84,14.6986 1013.32,15.1739 1003.81,15.6366 994.297,16.0881 984.784,16.5277 975.269,16.9554 965.754,17.3712 956.238,17.7758 946.721,18.1685 937.205,18.5486 927.689,18.9182 927.689,18.9175 918.17,19.2745 908.652,19.6196 899.133,19.9535 889.615,20.2748 880.095,20.5849 870.575,20.8831 861.055,21.1701 851.535,21.4445 842.014,21.7077 832.492,21.9583 822.972,22.1977 813.45,22.4259 803.93,22.6415 803.93,22.6408 794.406,22.8445 784.884,23.037 775.361,23.2176 765.839,23.3863 756.315,23.5431 746.792,23.688 737.268,23.821 727.745,23.9428 718.221,24.0527 708.697,24.1507 699.173,24.2368 689.649,24.311 680.125,24.3733 670.601,24.4244 661.077,24.4636 651.552,24.4909 642.028,24.5063 632.505,24.5098 622.981,24.5014 613.457,24.4818 603.932,24.4503 594.409,24.4069 584.884,24.3516 575.36,24.2844 565.836,24.2053 556.312,24.115 546.788,24.0128 537.264,23.898 527.74,23.7727 518.217,23.6348 508.694,23.485 499.171,23.324 489.649,23.1504 480.126,22.9656 470.604,22.7689 461.08,22.5603 461.08,22.561 451.56,22.3412 442.038,22.1088 432.517,21.8652 422.996,21.6097 413.476,21.3423 403.955,21.063 394.435,20.7725 384.916,20.4694 375.396,20.1551 365.878,19.8289 356.359,19.4908 346.842,19.1408 337.322,18.7796 337.322,18.7803 327.807,18.4065 318.29,18.0215 308.774,17.6246 299.258,17.2158 289.744,16.7951 280.229,16.3632 270.715,15.9194 261.202,15.4637 251.687,14.9961 251.687,14.9968 242.176,14.5173 232.665,14.0259 223.154,13.5233 213.643,13.0088 204.133,12.4824 194.624,11.9441 185.116,11.3939 175.606,10.8325 175.606,10.8332 166.101,10.2592 156.594,9.674 147.088,9.0769 146.985,9.0741 141.389,9.135 141.359,9.1357 135.914,9.3156 135.882,9.317 133.777,9.4346 133.433,10.2676 132.411,12.4992 131.34,14.595 130.217,16.548 129.041,18.3505 127.814,19.9941 126.531,21.4732 125.192,22.778 123.796,23.9029 122.343,24.8388 120.83,25.5787 119.258,26.1149 117.623,26.4397 113.287,27.1201 109.078,27.8964 105.022,28.7623 101.138,29.708 97.3567,30.7468 93.7174,31.8661 90.2524,33.0512 86.9099,34.3133 83.6934,35.6489 80.6197,37.0468 77.6566,38.5175 74.837,40.0414 72.1294,41.629 69.5513,43.2677 67.0684,44.975 64.7234,46.7159 62.4757,48.517 60.3225,50.3783 58.2974,52.2648 56.3647,54.2045 54.5111,56.2093 52.7765,58.2309 51.1203,60.3127 49.5565,62.4344 48.0781,64.6016 46.6991,66.7891 45.3789,69.0578 44.1623,71.33 43.029,73.6351 41.9601,76.0109 40.985,78.3881 40.0764,80.8283 39.2518,83.2832 38.4965,85.7899 37.8224,88.3043 37.2225,90.8495 36.6947,93.4248 36.2397,96.0295 35.8589,98.6433 35.5481,101.285 35.3045,103.972 35.1365,106.606 35.0343,109.325 35.0007,112 " style="fill-opacity:0.5;fill:rgb(0,0,0);stroke:rgb(0,0,0);stroke-width:1;fill:none"/>
<circle cx="35.0007" cy="112" r="2" style="stroke-width:1;stroke:red;fill:none"/>
</svg>
