<svg xmlns="http://www.w3.org/2000/svg"
     xmlns:xlink="http://www.w3.org/1999/xlink"
	width="100%" height="100%"
	onload="startup(evt)"
>
<script>
<![CDATA[

xmlns="http://www.w3.org/2000/svg"
var Doc;
var O;
var Col=new Array("red","cyan","green","yellow")
var P=new Array()
function startup(evt){
	Root=document.documentElement
	Doc=document
	drawlines(100,10)
	coolabel(0,0,15,15)
}

function drawlines(u,t){
	B=Root.getBBox()
	var w=B.width
	var h=B.height
	for (i=0;i<=w/t;i++){
		L=Doc.createElementNS(xmlns,"line")
		L.setAttribute("x1",i*t)
		L.setAttribute("x2",i*t)
		L.setAttribute("y1",0)
		L.setAttribute("y2",8)
		L.setAttribute("stroke","blue")
		L.setAttribute("stroke-width","1")
		Root.appendChild(L)
		if (i%10==0){
			L=Doc.createElementNS(xmlns,"line")
			L.setAttribute("x1",i*t)
			L.setAttribute("x2",i*t)
			L.setAttribute("y1",0)
			L.setAttribute("y2",h)
			L.setAttribute("stroke","#08a")
			L.setAttribute("stroke-width","1")
			Root.appendChild(L)
		}
	}
	for (i=0;i<=h/t;i++){
		L=Doc.createElementNS(xmlns,"line")
		L.setAttribute("x1",0)
		L.setAttribute("x2",8)
		L.setAttribute("y1",i*t)
		L.setAttribute("y2",i*t)
		L.setAttribute("stroke","blue")
		L.setAttribute("stroke-width","1")
		Root.appendChild(L)
		if (i%10==0){
			L=Doc.createElementNS(xmlns,"line")
			L.setAttribute("x1",0)
			L.setAttribute("x2",w)
			L.setAttribute("y1",i*t)
			L.setAttribute("y2",i*t)
			L.setAttribute("stroke","#08a")
			L.setAttribute("stroke-width","1")
			Root.appendChild(L)
		}
	}
}

function coolabel(x,y,ox,oy,l){
	if (l==null) label=x+","+y
	else label=l
	E=Doc.createElementNS(xmlns,"circle")
	E.setAttribute("cx",x)
	E.setAttribute("cy",y)
	E.setAttribute("r",5)
	E.setAttribute("stroke","green")
	E.setAttribute("stroke-width","3")
	E.setAttribute("opacity",".4")
	E.setAttribute("fill","yellow")
	Root.appendChild(E)
	L=Doc.createElementNS(xmlns,"line")
	L.setAttribute("x1",x)
	L.setAttribute("x2",x+ox)
	L.setAttribute("y1",y)
	L.setAttribute("y2",y+oy)
	L.setAttribute("stroke","red")
	L.setAttribute("stroke-width","2")
	Root.appendChild(L)
	T=Doc.createElementNS(xmlns,"text")
	T.setAttribute("x",x+ox-label.length*2)
	if (oy>0)
	T.setAttribute("y",y+oy+12)
	else
	T.setAttribute("y",y+oy-4)
	T.setAttribute("font-size",12)
	if (l==null) T.setAttribute("fill","blue")
	else T.setAttribute("fill","black")
	msg=Doc.createTextNode(label)
	T.appendChild(msg)
	Root.appendChild(T)

}
//]]>
</script>
<rect id="BB" x="0" y="0" height="100%" width="100%" fill="white"/>

<polyline points="21,112 21.0378,115.045 21.1526,118.088 21.3465,121.126 21.6209,124.157 21.9765,127.178 22.4147,130.187 22.9383,133.181 23.548,136.158 24.2452,139.116 25.032,142.052 25.9091,144.963 26.8786,147.848 27.9412,150.703 29.0997,153.527 30.3548,156.316 31.7086,159.069 33.1618,161.783 34.7165,164.456 36.3741,167.084 38.136,169.667 40.0029,172.201 41.9783,174.684 44.0622,177.112 46.256,179.485 48.5625,181.8 50.9817,184.053 53.5157,186.243 56.1666,188.368 58.9358,190.424 61.8233,192.409 64.8326,194.321 67.9644,196.158 71.2201,197.917 74.6011,199.596 78.1095,201.191 81.746,202.702 85.5127,204.124 89.4103,205.457 93.4416,206.697 97.608,207.841 101.91,208.888 106.349,209.836 110.928,210.681 115.647,211.422 120.508,212.055 125.513,212.578 130.663,212.99 135.96,213.286 141.405,213.466 147,213.527 147,213.527 156.507,212.93 166.015,212.345 175.524,211.771 185.033,211.21 194.543,210.659 204.054,210.121 213.566,209.595 223.078,209.08 232.591,208.578 242.104,208.086 251.619,207.607 261.133,207.139 270.648,206.683 280.164,206.24 289.68,205.808 299.197,205.387 308.714,204.978 318.232,204.581 327.75,204.196 337.269,203.822 346.788,203.461 356.308,203.111 365.828,202.773 375.348,202.447 384.87,202.133 394.391,201.83 403.913,201.539 413.435,201.26 422.957,200.992 432.48,200.737 442.002,200.493 451.526,200.261 461.049,200.041 470.573,199.832 480.097,199.636 489.621,199.451 499.145,199.277 508.67,199.116 518.195,198.967 527.72,198.829 537.246,198.703 546.771,198.589 556.297,198.486 565.823,198.396 575.348,198.317 584.874,198.25 594.4,198.194 603.926,198.151 613.452,198.12 622.978,198.1 632.504,198.092 642.03,198.095 651.556,198.111 661.082,198.138 670.608,198.177 680.134,198.228 689.66,198.29 699.186,198.365 708.712,198.451 718.237,198.549 727.763,198.659 737.288,198.78 746.813,198.913 756.338,199.058 765.863,199.215 775.387,199.384 784.912,199.564 794.436,199.757 803.96,199.961 813.483,200.176 823.007,200.404 832.53,200.644 842.052,200.894 851.575,201.158 861.097,201.432 870.619,201.719 880.141,202.017 889.661,202.327 899.182,202.649 908.702,202.983 918.222,203.328 927.742,203.685 937.261,204.054 946.779,204.434 956.297,204.827 965.814,205.232 975.332,205.647 984.848,206.075 994.364,206.515 1003.88,206.966 1013.39,207.429 1022.91,207.904 1032.42,208.391 1041.94,208.889 1051.45,209.399 1060.96,209.922 1070.47,210.455 1079.98,211 1089.49,211.558 1099,212.127 1099,212.127 1103.35,212.067 1107.59,211.89 1111.71,211.597 1115.71,211.191 1119.6,210.675 1123.39,210.05 1127.06,209.32 1130.62,208.487 1134.07,207.553 1137.42,206.52 1140.66,205.391 1143.79,204.168 1146.82,202.854 1149.75,201.451 1152.58,199.961 1155.31,198.388 1157.94,196.732 1160.47,194.998 1162.91,193.187 1165.25,191.3 1167.49,189.342 1169.65,187.314 1171.71,185.219 1173.68,183.06 1175.56,180.837 1177.36,178.555 1179.06,176.215 1180.68,173.819 1182.22,171.37 1183.67,168.871 1185.04,166.325 1186.33,163.733 1187.54,161.097 1188.67,158.42 1189.72,155.705 1190.7,152.954 1191.6,150.169 1192.43,147.353 1193.18,144.509 1193.86,141.637 1194.48,138.742 1195.02,135.825 1195.49,132.889 1195.9,129.936 1196.24,126.969 1196.52,123.989 1196.73,121 1196.88,118.004 1196.97,115.003 1197,112 1197,112 1196.97,108.997 1196.88,105.996 1196.73,103 1196.52,100.011 1196.24,97.0312 1195.9,94.0639 1195.49,91.1113 1195.02,88.1748 1194.48,85.2579 1193.86,82.3627 1193.18,79.4913 1192.43,76.6465 1191.6,73.8311 1190.7,71.0458 1189.72,68.2948 1188.67,65.5802 1187.54,62.9034 1186.33,60.2672 1185.04,57.6751 1183.67,55.1285 1182.22,52.6295 1180.68,50.1809 1179.06,47.7855 1177.36,45.4454 1175.56,43.1627 1173.68,40.9402 1171.71,38.7807 1169.65,36.6856 1167.49,34.6577 1165.25,32.6998 1162.91,30.8133 1160.47,29.0024 1157.94,27.2678 1155.31,25.6123 1152.58,24.0387 1149.75,22.5491 1146.82,21.1463 1143.79,19.8317 1140.66,18.6095 1137.42,17.4804 1134.07,16.4472 1130.62,15.5127 1127.06,14.6797 1123.39,13.9496 1119.6,13.3252 1115.71,12.8086 1111.71,12.4026 1107.59,12.11 1103.35,11.9329 1099,11.8727 1099,11.8727 1089.49,12.4418 1079.98,12.9997 1070.47,13.545 1060.96,14.0784 1051.45,14.6006 1041.94,15.1109 1032.42,15.6093 1022.91,16.0958 1013.39,16.5711 1003.88,17.0338 994.364,17.4853 984.848,17.9249 975.332,18.3526 965.814,18.7684 956.297,19.173 946.779,19.5657 937.261,19.9458 927.742,20.3154 918.222,20.6724 908.702,21.0175 899.182,21.3514 889.661,21.6727 880.141,21.9828 870.619,22.281 861.097,22.568 851.575,22.8424 842.052,23.1056 832.53,23.3562 823.007,23.5956 813.483,23.8238 803.96,24.0394 794.436,24.2431 784.912,24.4356 775.387,24.6162 765.863,24.7849 756.338,24.9417 746.813,25.0866 737.288,25.2196 727.763,25.3414 718.237,25.4513 708.712,25.5493 699.186,25.6354 689.66,25.7096 680.134,25.7719 670.608,25.823 661.082,25.8622 651.556,25.8895 642.03,25.9049 632.504,25.9084 622.978,25.9 613.452,25.8804 603.926,25.8489 594.4,25.8055 584.874,25.7502 575.348,25.683 565.823,25.6039 556.297,25.5136 546.771,25.4114 537.246,25.2966 527.72,25.1713 518.195,25.0334 508.67,24.8836 499.145,24.7226 489.621,24.549 480.097,24.3642 470.573,24.1675 461.049,23.9589 451.526,23.7391 442.002,23.5067 432.48,23.2631 422.957,23.0076 413.435,22.7402 403.913,22.4609 394.391,22.1704 384.87,21.8673 375.348,21.553 365.828,21.2268 356.308,20.8887 346.788,20.5387 337.269,20.1775 327.75,19.8037 318.232,19.4187 308.714,19.0218 299.197,18.613 289.68,18.1923 280.164,17.7604 270.648,17.3166 261.133,16.8609 251.619,16.3933 242.104,15.9138 232.591,15.4224 223.078,14.9198 213.566,14.4053 204.054,13.8789 194.543,13.3406 185.033,12.7904 175.524,12.229 166.015,11.655 156.507,11.0698 147,10.4727 147,10.4727 141.405,10.5336 135.96,10.7135 130.663,11.0103 125.513,11.4219 120.508,11.9455 115.647,12.5783 110.928,13.3189 106.349,14.1638 101.91,15.1116 97.608,16.1588 93.4416,17.3033 89.4103,18.543 85.5127,19.8758 81.746,21.2982 78.1095,22.8088 74.6011,24.4041 71.2201,26.0827 67.9644,27.8418 64.8326,29.6786 61.8233,31.591 58.9358,33.5762 56.1666,35.6321 53.5157,37.7566 50.9817,39.9469 48.5625,42.2002 46.256,44.5151 44.0622,46.8881 41.9783,49.3164 40.0029,51.7993 38.136,54.3333 36.3741,56.9156 34.7165,59.5441 33.1618,62.2167 31.7086,64.9306 30.3548,67.6837 29.0997,70.4732 27.9412,73.297 26.8786,76.1523 25.9091,79.037 25.032,81.9483 24.2452,84.8841 23.548,87.8416 22.9383,90.8187 22.4147,93.8133 21.9765,96.8219 21.6209,99.8431 21.3465,102.874 21.1526,105.912 21.0378,108.955 21,112 " style="fill-opacity:0.5;fill:rgb(0,0,0);stroke:rgb(0,0,0);stroke-width:1;fill:none"/>
<circle cx="21" cy="112" r="2" style="stroke-width:1;stroke:red;fill:none"/>
<polyline points="35.0007,112 35.0343,114.675 35.1365,117.394 35.3045,120.028 35.5481,122.715 35.8603,125.368 36.2397,127.971 36.6947,130.575 37.2225,133.15 37.8224,135.696 38.4965,138.21 39.2518,140.717 40.0764,143.172 40.985,145.612 41.9601,147.989 43.029,150.365 44.1623,152.67 45.3789,154.942 46.6991,157.211 48.0781,159.398 49.5565,161.566 51.1203,163.687 52.7765,165.769 54.5111,167.791 56.3647,169.796 58.2974,171.735 60.3267,173.625 62.4757,175.483 64.7234,177.284 67.0684,179.025 69.5513,180.732 72.1294,182.371 74.837,183.959 77.6566,185.483 80.6197,186.953 83.6934,188.351 86.9099,189.687 90.2524,190.949 93.7174,192.134 97.3567,193.253 101.138,194.292 105.022,195.238 109.078,196.104 113.287,196.88 117.623,197.56 119.258,197.765 120.83,197.947 122.343,198.109 123.796,198.252 125.192,198.379 126.531,198.492 127.814,198.593 129.041,198.684 130.217,198.768 131.34,198.846 132.411,198.921 133.433,198.995 134.407,199.07 135.333,199.149 136.212,199.233 137.047,199.324 137.838,199.425 138.585,199.538 139.292,199.665 139.958,199.809 140.584,199.97 141.173,200.152 141.725,200.358 142.241,200.588 142.723,200.845 143.172,201.132 143.588,201.45 143.973,201.801 144.328,202.188 144.655,202.613 144.955,203.078 145.228,203.586 145.476,204.138 145.7,204.736 145.902,205.383 146.082,206.082 146.241,206.833 146.382,207.64 146.504,208.503 146.61,209.427 146.7,210.412 146.775,211.462 146.838,212.577 146.887,213.76 146.927,215.015 146.94,215.625 146.977,215.625 147.132,215.621 156.638,215.024 166.142,214.439 166.142,214.439 175.65,213.865 185.157,213.304 194.664,212.754 204.173,212.215 213.679,211.689 213.679,211.69 223.191,211.175 232.702,210.673 242.213,210.181 251.724,209.702 261.233,209.234 261.233,209.235 270.748,208.779 280.262,208.335 289.776,207.903 299.289,207.483 308.804,207.074 318.317,206.677 318.317,206.678 327.835,206.293 337.352,205.919 346.868,205.558 356.385,205.208 365.903,204.87 375.421,204.543 384.939,204.229 394.454,203.926 394.454,203.927 403.976,203.636 413.496,203.357 423.016,203.09 432.536,202.834 442.056,202.59 451.577,202.358 461.098,202.138 470.619,201.93 480.14,201.733 489.66,201.548 489.66,201.549 499.184,201.375 508.706,201.214 518.228,201.065 527.75,200.927 537.273,200.801 546.797,200.686 556.319,200.584 565.842,200.494 575.366,200.415 584.889,200.348 594.412,200.292 603.936,200.249 613.459,200.218 622.983,200.198 632.505,200.19 642.027,200.193 651.55,200.208 661.074,200.236 670.597,200.275 680.12,200.326 689.644,200.388 699.167,200.463 708.69,200.549 718.213,200.647 727.736,200.757 737.258,200.878 746.781,201.011 756.304,201.156 765.826,201.313 775.35,201.482 775.35,201.481 784.869,201.662 794.391,201.854 803.912,202.058 813.433,202.273 822.954,202.502 832.474,202.741 841.994,202.992 851.515,203.255 861.034,203.529 870.554,203.816 880.075,204.114 880.075,204.114 889.591,204.424 899.109,204.745 908.626,205.079 918.144,205.424 927.66,205.781 937.177,206.151 946.695,206.531 946.695,206.53 956.208,206.923 965.723,207.327 975.237,207.743 984.752,208.171 994.265,208.611 1003.78,209.062 1003.78,209.061 1013.29,209.524 1022.8,209.999 1032.31,210.486 1041.82,210.984 1051.33,211.494 1051.33,211.494 1060.84,212.016 1070.35,212.549 1079.86,213.095 1089.37,213.653 1098.87,214.222 1099.03,214.225 1099.04,214.225 1099.05,213.654 1099.08,212.416 1099.12,211.25 1099.17,210.155 1099.24,209.126 1099.31,208.162 1099.4,207.262 1099.51,206.422 1099.63,205.639 1099.77,204.911 1099.93,204.237 1100.11,203.612 1100.32,203.036 1100.54,202.505 1100.79,202.017 1101.07,201.57 1101.37,201.161 1101.7,200.788 1102.06,200.448 1102.45,200.139 1102.87,199.858 1103.32,199.603 1103.81,199.372 1104.33,199.162 1104.89,198.97 1105.48,198.794 1106.12,198.633 1106.79,198.482 1107.51,198.34 1108.27,198.205 1109.07,198.074 1109.92,197.944 1110.81,197.813 1111.75,197.679 1112.74,197.539 1113.78,197.39 1114.87,197.231 1116.01,197.059 1117.21,196.871 1118.46,196.665 1119.76,196.439 1121.13,196.19 1122.55,195.915 1124.03,195.612 1125.57,195.279 1127.18,194.914 1130.18,194.102 1133.05,193.215 1135.81,192.252 1138.46,191.222 1141.01,190.117 1143.48,188.934 1145.82,187.7 1148.07,186.401 1150.26,185.024 1152.33,183.604 1154.34,182.11 1156.25,180.573 1158.1,178.961 1159.85,177.308 1161.55,175.582 1163.15,173.826 1164.71,171.985 1166.2,170.099 1167.61,168.164 1168.95,166.176 1170.24,164.128 1171.45,162.035 1172.6,159.899 1173.7,157.698 1174.73,155.438 1175.69,153.178 1176.6,150.819 1177.44,148.459 1178.22,146.059 1178.94,143.582 1179.6,141.093 1180.2,138.571 1180.74,136.019 1181.22,133.435 1181.65,130.797 1182.01,128.192 1182.32,125.502 1182.56,122.895 1182.76,120.141 1182.89,117.435 1182.97,114.727 1183,112 1182.97,109.273 1182.89,106.565 1182.76,103.859 1182.56,101.126 1182.32,98.4984 1182.01,95.8083 1181.65,93.2029 1181.22,90.5646 1180.74,87.9809 1180.2,85.4287 1179.6,82.9073 1178.94,80.4181 1178.22,77.9415 1177.44,75.5412 1176.6,73.1815 1175.69,70.8225 1174.73,68.5622 1173.7,66.3019 1172.6,64.1011 1171.45,61.9647 1170.24,59.8724 1168.95,57.8242 1167.61,55.8362 1166.2,53.9014 1164.71,52.0149 1163.15,50.1739 1161.55,48.4183 1159.85,46.6921 1158.1,45.0394 1156.25,43.4273 1154.34,41.8901 1152.33,40.3963 1150.26,38.976 1148.07,37.5991 1145.82,36.2999 1143.48,35.0658 1141.01,33.8835 1138.46,32.7782 1135.81,31.7478 1133.05,30.7846 1130.18,29.8984 1127.18,29.0864 1125.57,28.721 1124.03,28.3878 1122.55,28.0854 1121.13,27.8103 1119.76,27.5611 1118.46,27.335 1117.21,27.1285 1116.01,26.9409 1114.87,26.7687 1113.78,26.6098 1112.74,26.4614 1111.75,26.3214 1110.81,26.187 1109.92,26.0561 1109.07,25.9259 1108.27,25.795 1107.51,25.6599 1106.79,25.5178 1106.12,25.3673 1105.48,25.2056 1104.89,25.0299 1104.33,24.8381 1103.81,24.6281 1103.32,24.3971 1102.87,24.1423 1102.45,23.8609 1102.06,23.5522 1101.7,23.212 1101.37,22.8389 1101.07,22.4301 1100.79,21.9828 1100.54,21.4949 1100.32,20.9643 1100.11,20.3875 1099.93,19.7631 1099.77,19.089 1099.63,18.361 1099.51,17.5784 1099.4,16.7377 1099.31,15.8375 1099.24,14.8736 1099.17,13.8453 1099.12,12.7498 1099.08,11.5836 1099.05,10.346 1099.04,9.7748 1099.03,9.7748 1098.87,9.7783 1089.37,10.3474 1079.86,10.9053 1070.35,11.4506 1060.84,11.984 1051.33,12.5062 1051.33,12.5055 1041.82,13.0158 1032.31,13.5142 1022.8,14.0007 1013.29,14.476 1003.78,14.9387 1003.78,14.938 994.265,15.3895 984.752,15.8291 975.237,16.2568 965.723,16.6726 956.208,17.0772 946.695,17.4699 946.695,17.4692 937.177,17.8493 927.66,18.2189 918.144,18.5759 908.626,18.921 899.109,19.2549 889.591,19.5762 880.075,19.8863 880.075,19.8856 870.554,20.1838 861.034,20.4708 851.515,20.7452 841.994,21.0084 832.474,21.259 822.954,21.4984 813.433,21.7266 803.912,21.9422 794.391,22.1459 784.869,22.3384 775.35,22.519 775.35,22.5183 765.826,22.687 756.304,22.8438 746.781,22.9887 737.258,23.1217 727.736,23.2435 718.213,23.3534 708.69,23.4514 699.167,23.5375 689.644,23.6117 680.12,23.674 670.597,23.7251 661.074,23.7643 651.55,23.7916 642.027,23.807 632.505,23.8105 622.983,23.8021 613.459,23.7825 603.936,23.751 594.412,23.7076 584.889,23.6523 575.366,23.5851 565.842,23.506 556.319,23.4157 546.797,23.3135 537.273,23.1987 527.75,23.0734 518.228,22.9355 508.706,22.7857 499.184,22.6247 489.66,22.4511 489.66,22.4518 480.14,22.267 470.619,22.0703 461.098,21.8617 451.577,21.6419 442.056,21.4095 432.536,21.1659 423.016,20.9104 413.496,20.643 403.976,20.3637 394.454,20.0732 394.454,20.0739 384.939,19.7708 375.421,19.4565 365.903,19.1303 356.385,18.7922 346.868,18.4422 337.352,18.081 327.835,17.7072 318.317,17.3222 318.317,17.3229 308.804,16.926 299.289,16.5172 289.776,16.0965 280.262,15.6646 270.748,15.2208 261.233,14.7651 261.233,14.7658 251.724,14.2982 242.213,13.8187 232.702,13.3273 223.191,12.8247 213.679,12.3102 213.679,12.3109 204.173,11.7845 194.664,11.2462 185.157,10.696 175.65,10.1346 166.142,9.5606 166.142,9.5613 156.638,8.9761 147.132,8.379 146.977,8.3748 146.94,8.3755 146.927,8.9852 146.887,10.2396 146.838,11.4233 146.775,12.5384 146.7,13.5877 146.61,14.5726 146.504,15.4966 146.382,16.3604 146.241,17.1668 146.082,17.9179 145.902,18.6165 145.7,19.264 145.476,19.8625 145.228,20.4141 144.955,20.9216 144.655,21.3871 144.328,21.812 143.973,22.1991 143.588,22.5505 143.172,22.8683 142.723,23.1553 142.241,23.4122 141.725,23.6425 141.173,23.8476 140.584,24.0296 139.958,24.1913 139.292,24.3348 138.585,24.4622 137.838,24.5749 137.047,24.6764 136.212,24.7674 135.333,24.8514 134.407,24.9298 133.433,25.0047 132.411,25.0789 131.34,25.1538 130.217,25.2322 129.041,25.3155 127.814,25.4072 126.531,25.508 125.192,25.6207 123.796,25.7481 122.343,25.8909 120.83,26.0526 119.258,26.2353 117.623,26.4397 113.287,27.1201 109.078,27.8964 105.022,28.7623 101.138,29.708 97.3567,30.7468 93.7174,31.8661 90.2524,33.0512 86.9099,34.3133 83.6934,35.6489 80.6197,37.0468 77.6566,38.5175 74.837,40.0414 72.1294,41.629 69.5513,43.2677 67.0684,44.975 64.7234,46.7159 62.4757,48.517 60.3225,50.3783 58.2974,52.2648 56.3647,54.2045 54.5111,56.2093 52.7765,58.2309 51.1203,60.3127 49.5565,62.4344 48.0781,64.6016 46.6991,66.7891 45.3789,69.0578 44.1623,71.33 43.029,73.6351 41.9601,76.0109 40.985,78.3881 40.0764,80.8283 39.2518,83.2832 38.4965,85.7899 37.8224,88.3043 37.2225,90.8495 36.6947,93.4248 36.2397,96.0295 35.8589,98.6433 35.5481,101.285 35.3045,103.972 35.1365,106.606 35.0343,109.325 35.0007,112 " style="fill-opacity:0.5;fill:rgb(0,0,0);stroke:rgb(0,0,0);stroke-width:1;fill:none"/>
<circle cx="35.0007" cy="112" r="2" style="stroke-width:1;stroke:red;fill:none"/>
</svg>
