<svg xmlns="http://www.w3.org/2000/svg"
     xmlns:xlink="http://www.w3.org/1999/xlink"
	width="100%" height="100%"
	onload="startup(evt)"
>
<script>
<![CDATA[

xmlns="http://www.w3.org/2000/svg"
var Doc;
var O;
var Col=new Array("red","cyan","green","yellow")
var P=new Array()
function startup(evt){
	Root=document.documentElement
	Doc=document
	drawlines(100,10)
	coolabel(0,0,15,15)
}

function drawlines(u,t){
	B=Root.getBBox()
	var w=B.width
	var h=B.height
	for (i=0;i<=w/t;i++){
		L=Doc.createElementNS(xmlns,"line")
		L.setAttribute("x1",i*t)
		L.setAttribute("x2",i*t)
		L.setAttribute("y1",0)
		L.setAttribute("y2",8)
		L.setAttribute("stroke","blue")
		L.setAttribute("stroke-width","1")
		Root.appendChild(L)
		if (i%10==0){
			L=Doc.createElementNS(xmlns,"line")
			L.setAttribute("x1",i*t)
			L.setAttribute("x2",i*t)
			L.setAttribute("y1",0)
			L.setAttribute("y2",h)
			L.setAttribute("stroke","#08a")
			L.setAttribute("stroke-width","1")
			Root.appendChild(L)
		}
	}
	for (i=0;i<=h/t;i++){
		L=Doc.createElementNS(xmlns,"line")
		L.setAttribute("x1",0)
		L.setAttribute("x2",8)
		L.setAttribute("y1",i*t)
		L.setAttribute("y2",i*t)
		L.setAttribute("stroke","blue")
		L.setAttribute("stroke-width","1")
		Root.appendChild(L)
		if (i%10==0){
			L=Doc.createElementNS(xmlns,"line")
			L.setAttribute("x1",0)
			L.setAttribute("x2",w)
			L.setAttribute("y1",i*t)
			L.setAttribute("y2",i*t)
			L.setAttribute("stroke","#08a")
			L.setAttribute("stroke-width","1")
			Root.appendChild(L)
		}
	}
}

function coolabel(x,y,ox,oy,l){
	if (l==null) label=x+","+y
	else label=l
	E=Doc.createElementNS(xmlns,"circle")
	E.setAttribute("cx",x)
	E.setAttribute("cy",y)
	E.setAttribute("r",5)
	E.setAttribute("stroke","green")
	E.setAttribute("stroke-width","3")
	E.setAttribute("opacity",".4")
	E.setAttribute("fill","yellow")
	Root.appendChild(E)
	L=Doc.createElementNS(xmlns,"line")
	L.setAttribute("x1",x)
	L.setAttribute("x2",x+ox)
	L.setAttribute("y1",y)
	L.setAttribute("y2",y+oy)
	L.setAttribute("stroke","red")
	L.setAttribute("stroke-width","2")
	Root.appendChild(L)
	T=Doc.createElementNS(xmlns,"text")
	T.setAttribute("x",x+ox-label.length*2)
	if (oy>0)
	T.setAttribute("y",y+oy+12)
	else
	T.setAttribute("y",y+oy-4)
	T.setAttribute("font-size",12)
	if (l==null) T.setAttribute("fill","blue")
	else T.setAttribute("fill","black")
	msg=Doc.createTextNode(label)
	T.appendChild(msg)
	Root.appendChild(T)

}
//]]>
</script>
<rect id="BB" x="0" y="0" height="100%" width="100%" fill="white"/>

<polyline points="7,112 7.0378,115.045 7.1526,118.088 7.3465,121.126 7.6209,124.157 7.9765,127.178 8.4147,130.187 8.9383,133.181 9.548,136.158 10.2452,139.116 11.032,142.052 11.9091,144.963 12.8786,147.848 13.9412,150.703 15.0997,153.527 16.3548,156.316 17.7086,159.069 19.1618,161.783 20.7165,164.456 22.3741,167.084 24.136,169.667 26.0029,172.201 27.9783,174.684 30.0622,177.112 32.256,179.485 34.5625,181.8 36.9817,184.053 39.5157,186.243 42.1666,188.368 44.9358,190.424 47.8233,192.409 50.8326,194.321 53.9644,196.158 57.2201,197.917 60.6011,199.596 64.1095,201.191 67.746,202.702 71.5127,204.124 75.4103,205.457 79.4416,206.697 83.608,207.841 87.9095,208.888 92.3489,209.836 96.9276,210.681 101.647,211.422 106.508,212.055 111.513,212.578 116.663,212.99 121.96,213.286 127.405,213.466 133,213.527 133,213.527 142.507,212.93 152.015,212.345 161.524,211.771 171.033,211.21 180.543,210.659 190.054,210.121 199.566,209.595 209.078,209.08 218.591,208.578 228.104,208.086 237.619,207.607 247.133,207.139 256.648,206.683 266.164,206.24 275.68,205.808 285.197,205.387 294.714,204.978 304.232,204.581 313.75,204.196 323.269,203.822 332.788,203.461 342.308,203.111 351.828,202.773 361.348,202.447 370.87,202.133 380.391,201.83 389.913,201.539 399.435,201.26 408.957,200.992 418.48,200.737 428.002,200.493 437.526,200.261 447.049,200.041 456.573,199.832 466.097,199.636 475.621,199.451 485.145,199.277 494.67,199.116 504.195,198.967 513.72,198.829 523.246,198.703 532.771,198.589 542.297,198.486 551.823,198.396 561.348,198.317 570.874,198.25 580.4,198.194 589.926,198.151 599.452,198.12 608.978,198.1 618.504,198.092 628.03,198.095 637.556,198.111 647.082,198.138 656.608,198.177 666.134,198.228 675.66,198.29 685.186,198.365 694.712,198.451 704.237,198.549 713.763,198.659 723.288,198.78 732.813,198.913 742.338,199.058 751.863,199.215 761.387,199.384 770.912,199.564 780.436,199.757 789.96,199.961 799.483,200.176 809.007,200.404 818.53,200.644 828.052,200.894 837.575,201.158 847.097,201.432 856.619,201.719 866.141,202.017 875.661,202.327 885.182,202.649 894.702,202.983 904.222,203.328 913.742,203.685 923.261,204.054 932.779,204.434 942.297,204.827 951.814,205.232 961.332,205.647 970.848,206.075 980.364,206.515 989.879,206.966 999.394,207.429 1008.91,207.904 1018.42,208.391 1027.94,208.889 1037.45,209.399 1046.96,209.922 1056.47,210.455 1065.98,211 1075.49,211.558 1085,212.127 1085,212.127 1089.35,212.067 1093.59,211.89 1097.71,211.597 1101.71,211.191 1105.6,210.675 1109.39,210.05 1113.06,209.32 1116.62,208.487 1120.07,207.553 1123.42,206.52 1126.66,205.391 1129.79,204.168 1132.82,202.854 1135.75,201.451 1138.58,199.961 1141.31,198.388 1143.94,196.732 1146.47,194.998 1148.91,193.187 1151.25,191.3 1153.49,189.342 1155.65,187.314 1157.71,185.219 1159.68,183.06 1161.56,180.837 1163.36,178.555 1165.06,176.215 1166.68,173.819 1168.22,171.37 1169.67,168.871 1171.04,166.325 1172.33,163.733 1173.54,161.097 1174.67,158.42 1175.72,155.705 1176.7,152.954 1177.6,150.169 1178.43,147.353 1179.18,144.509 1179.86,141.637 1180.48,138.742 1181.02,135.825 1181.49,132.889 1181.9,129.936 1182.24,126.969 1182.52,123.989 1182.73,121 1182.88,118.004 1182.97,115.003 1183,112 1183,112 1182.97,108.997 1182.88,105.996 1182.73,103 1182.52,100.011 1182.24,97.0312 1181.9,94.0639 1181.49,91.1113 1181.02,88.1748 1180.48,85.2579 1179.86,82.3627 1179.18,79.4913 1178.43,76.6465 1177.6,73.8311 1176.7,71.0458 1175.72,68.2948 1174.67,65.5802 1173.54,62.9034 1172.33,60.2672 1171.04,57.6751 1169.67,55.1285 1168.22,52.6295 1166.68,50.1809 1165.06,47.7855 1163.36,45.4454 1161.56,43.1627 1159.68,40.9402 1157.71,38.7807 1155.65,36.6856 1153.49,34.6577 1151.25,32.6998 1148.91,30.8133 1146.47,29.0024 1143.94,27.2678 1141.31,25.6123 1138.58,24.0387 1135.75,22.5491 1132.82,21.1463 1129.79,19.8317 1126.66,18.6095 1123.42,17.4804 1120.07,16.4472 1116.62,15.5127 1113.06,14.6797 1109.39,13.9496 1105.6,13.3252 1101.71,12.8086 1097.71,12.4026 1093.59,12.11 1089.35,11.9329 1085,11.8727 1085,11.8727 1075.49,12.4418 1065.98,12.9997 1056.47,13.545 1046.96,14.0784 1037.45,14.6006 1027.94,15.1109 1018.42,15.6093 1008.91,16.0958 999.394,16.5711 989.879,17.0338 980.364,17.4853 970.848,17.9249 961.332,18.3526 951.814,18.7684 942.297,19.173 932.779,19.5657 923.261,19.9458 913.742,20.3154 904.222,20.6724 894.702,21.0175 885.182,21.3514 875.661,21.6727 866.141,21.9828 856.619,22.281 847.097,22.568 837.575,22.8424 828.052,23.1056 818.53,23.3562 809.007,23.5956 799.483,23.8238 789.96,24.0394 780.436,24.2431 770.912,24.4356 761.387,24.6162 751.863,24.7849 742.338,24.9417 732.813,25.0866 723.288,25.2196 713.763,25.3414 704.237,25.4513 694.712,25.5493 685.186,25.6354 675.66,25.7096 666.134,25.7719 656.608,25.823 647.082,25.8622 637.556,25.8895 628.03,25.9049 618.504,25.9084 608.978,25.9 599.452,25.8804 589.926,25.8489 580.4,25.8055 570.874,25.7502 561.348,25.683 551.823,25.6039 542.297,25.5136 532.771,25.4114 523.246,25.2966 513.72,25.1713 504.195,25.0334 494.67,24.8836 485.145,24.7226 475.621,24.549 466.097,24.3642 456.573,24.1675 447.049,23.9589 437.526,23.7391 428.002,23.5067 418.48,23.2631 408.957,23.0076 399.435,22.7402 389.913,22.4609 380.391,22.1704 370.87,21.8673 361.348,21.553 351.828,21.2268 342.308,20.8887 332.788,20.5387 323.269,20.1775 313.75,19.8037 304.232,19.4187 294.714,19.0218 285.197,18.613 275.68,18.1923 266.164,17.7604 256.648,17.3166 247.133,16.8609 237.619,16.3933 228.104,15.9138 218.591,15.4224 209.078,14.9198 199.566,14.4053 190.054,13.8789 180.543,13.3406 171.033,12.7904 161.524,12.229 152.015,11.655 142.507,11.0698 133,10.4727 133,10.4727 127.405,10.5336 121.96,10.7135 116.663,11.0103 111.513,11.4219 106.508,11.9455 101.647,12.5783 96.9276,13.3189 92.3489,14.1638 87.9095,15.1116 83.608,16.1588 79.4416,17.3033 75.4103,18.543 71.5127,19.8758 67.746,21.2982 64.1095,22.8088 60.6011,24.4041 57.2201,26.0827 53.9644,27.8418 50.8326,29.6786 47.8233,31.591 44.9358,33.5762 42.1666,35.6321 39.5157,37.7566 36.9817,39.9469 34.5625,42.2002 32.256,44.5151 30.0622,46.8881 27.9783,49.3164 26.0029,51.7993 24.136,54.3333 22.3741,56.9156 20.7165,59.5441 19.1618,62.2167 17.7086,64.9306 16.3548,67.6837 15.0997,70.4732 13.9412,73.297 12.8786,76.1523 11.9091,79.037 11.032,81.9483 10.2452,84.8841 9.548,87.8416 8.9383,90.8187 8.4147,93.8133 7.9765,96.8219 7.6209,99.8431 7.3465,102.874 7.1526,105.912 7.0378,108.955 7,112 " style="fill-opacity:0.5;fill:rgb(0,0,0);stroke:rgb(0,0,0);stroke-width:1;fill:none"/>
<circle cx="7" cy="112" r="2" style="stroke-width:1;stroke:red;fill:none"/>
<polyline points="7,110.6 133,110.6 138.655,110.596 144.203,110.581 149.647,110.557 154.995,110.525 160.251,110.484 165.421,110.436 170.512,110.38 175.527,110.317 180.475,110.247 185.36,110.171 190.187,110.088 194.963,110.001 199.694,109.908 204.385,109.81 209.04,109.708 213.668,109.603 218.273,109.493 222.861,109.38 227.437,109.264 232.008,109.147 236.578,109.026 241.154,108.905 245.742,108.783 250.347,108.659 254.975,108.535 259.631,108.412 264.321,108.288 269.052,108.165 273.828,108.044 278.656,107.924 283.541,107.806 288.488,107.691 293.504,107.578 298.594,107.468 303.765,107.362 309.021,107.26 314.368,107.163 319.812,107.07 325.36,106.982 331.016,106.9 336.785,106.823 342.676,106.754 348.692,106.691 354.838,106.635 361.123,106.586 367.55,106.546 374.125,106.513 380.855,106.49 387.745,106.475 394.8,106.47 823.2,106.47 830.255,106.475 837.145,106.49 843.875,106.513 850.45,106.546 856.877,106.586 863.161,106.635 869.308,106.691 875.323,106.754 881.214,106.823 886.984,106.9 892.639,106.982 898.187,107.07 903.631,107.163 908.979,107.26 914.234,107.362 919.405,107.468 924.496,107.578 929.511,107.691 934.459,107.806 939.344,107.924 944.171,108.044 948.947,108.165 953.678,108.288 958.369,108.412 963.025,108.535 967.652,108.659 972.257,108.783 976.845,108.905 981.421,109.026 985.992,109.147 990.562,109.264 995.138,109.38 999.726,109.493 1004.33,109.603 1008.96,109.708 1013.61,109.81 1018.31,109.908 1023.04,110.001 1027.81,110.088 1032.64,110.171 1037.52,110.247 1042.47,110.317 1047.49,110.38 1052.58,110.436 1057.75,110.484 1063,110.525 1068.35,110.557 1073.8,110.581 1079.34,110.596 1085,110.6 1183,110.6 " style="fill-opacity:0.5;fill:rgb(0,0,0);stroke:rgb(0,0,0);stroke-width:1;fill:none"/>
<circle cx="7" cy="110.6" r="2" style="stroke-width:1;stroke:red;fill:none"/>
</svg>
